<svg xmlns="http://www.w3.org/2000/svg" xml:space="preserve" width="7.11111in" height="7.11111in" version="1.1" style="shape-rendering:geometricPrecision; text-rendering:geometricPrecision; image-rendering:optimizeQuality; fill-rule:evenodd; clip-rule:evenodd" viewBox="0 0 7111 7111" xmlns:xlink="http://www.w3.org/1999/xlink">
 <defs>
  <style type="text/css">
   
    .fil0 {fill:black}
   
  </style>
 </defs>
 <g id="Layer_x0020_1">
  <metadata id="CorelCorpID_0Corel-Layer"></metadata>
  <path class="fil0" d="M3556 6235c-1226,0 -2225,-997 -2225,-2224 0,-1130 847,-2066 1941,-2206l0 687c-718,134 -1263,765 -1263,1520 0,853 694,1546 1547,1546 852,0 1546,-695 1546,-1546 0,-755 -545,-1386 -1263,-1520l0 -687c1093,140 1941,1076 1941,2206 0,1227 -999,2224 -2224,2224zm0 -1355c-479,0 -870,-389 -870,-868 0,-379 246,-703 586,-821l0 -501c-610,131 -1069,674 -1069,1322 0,746 607,1351 1353,1351 745,0 1352,-606 1352,-1351 0,-648 -459,-1191 -1069,-1322l0 501c341,118 586,442 586,821 0,478 -390,868 -869,868zm-284 -1480c-231,108 -391,342 -391,612 0,372 302,674 675,674 372,0 674,-303 674,-674 0,-270 -160,-504 -391,-612l0 612c0,157 -127,284 -283,284 -158,0 -284,-126 -284,-284l0 -612z" id="id_101" style="fill: rgb(255, 255, 255);"></path>
  <path class="fil0" d="M3556 4110c-55,0 -98,-43 -98,-98l0 -3683c0,-54 43,-97 98,-97 54,0 97,43 97,97l0 3683c0,53 -43,98 -97,98z" id="id_102" style="fill: rgb(255, 255, 255);"></path>
  <path class="fil0" d="M3887 1691c-16,0 -32,-1 -48,-3l0 -1232c6,1 12,3 18,4 125,20 277,-96 425,-209 180,-137 366,-280 574,-244 131,22 245,111 348,269 9,16 15,35 15,53l0 1034c0,43 -28,81 -70,93 -41,13 -86,-4 -109,-40 -71,-110 -145,-171 -218,-183 -125,-21 -277,94 -424,208 -162,122 -329,250 -511,250z" id="id_103" style="fill: rgb(255, 255, 255);"></path>
  <path class="fil0" d="M1845 7110l-619 0c-35,0 -67,-18 -85,-49 -18,-30 -18,-66 0,-97l718 -1242c174,173 375,320 595,433l-523 906c-19,31 -51,49 -86,49z" id="id_104" style="fill: rgb(255, 255, 255);"></path>
  <path class="fil0" d="M5266 7110c-35,0 -67,-18 -85,-49l-523 -906c220,-114 421,-261 595,-434l717 1242c17,30 18,66 0,97 -17,30 -49,48 -83,48l-621 2c0,0 0,0 0,0z" id="id_105" style="fill: rgb(255, 255, 255);"></path>
  <path class="fil0" d="M6304 7110l-5497 0c-55,0 -98,-43 -98,-97 0,-55 43,-98 98,-98l5497 0c55,0 98,43 98,98 0,54 -43,97 -98,97z" id="id_106" style="fill: rgb(255, 255, 255);"></path>
 </g>
</svg>