<svg id="Layer_1" data-name="Layer 1" xmlns="http://www.w3.org/2000/svg" viewBox="0 0 128 128"><defs><style>.cls-1{fill:#2e79bd;}.cls-2{fill:#2d3e50;}</style></defs><title>n</title><path class="cls-1" d="M66.941,64.21528V53.86337a2.94219,2.94219,0,0,0-5.88437,0v10.3519a8.82656,8.82656,0,1,0,5.88437,0Z" id="id_101" style="fill: rgb(255, 255, 255);"></path><path class="cls-2" d="M105.75765,39.03638l5.48809-5.48809a7.64585,7.64585,0,0,0-10.81286-10.81286l-5.86011,5.85768A53.51847,53.51847,0,0,0,74.196,19.9774l-3.31364-.47709V13.3881h6.88123V6.80594a4.87057,4.87057,0,0,0-4.8651-4.8651H55.10178a4.87057,4.87057,0,0,0-4.8651,4.8651V13.3881h6.88109v6.11221L53.804,19.9774a53.51279,53.51279,0,0,0-20.37932,8.61571l-5.85754-5.85768A7.64675,7.64675,0,0,0,16.7517,33.54829l5.48809,5.48809a53.53025,53.53025,0,1,0,83.51786,0Zm-4.61871,37.52638h1.65425A38.65143,38.65143,0,0,1,94.2617,97.1101l-1.15732-1.15461a4.02749,4.02749,0,0,0-5.69194,0,4.01578,4.01578,0,0,0,0,5.6868l1.15732,1.15717a38.6135,38.6135,0,0,1-20.54749,8.52392v-1.64668a4.02227,4.02227,0,0,0-8.04455,0v1.64668a38.63362,38.63362,0,0,1-20.54749-8.52392L40.585,101.6423a4.0237,4.0237,0,0,0-2.84483-6.8671h-.00257a3.98045,3.98045,0,0,0-2.842,1.1803l-1.15989,1.152a38.63276,38.63276,0,0,1-8.52892-20.54478h1.65425a4.02834,4.02834,0,0,0,4.02484-4.02484V72.446a4.02834,4.02834,0,0,0-4.02484-4.02484H25.20681a38.63276,38.63276,0,0,1,8.52892-20.54478l1.15732,1.152a3.99075,3.99075,0,0,0,2.84454,1.1803h.00257a4.02309,4.02309,0,0,0,2.84483-6.8671l-1.15475-1.15717A38.6135,38.6135,0,0,1,59.97773,33.6605v1.64668a4.02227,4.02227,0,0,0,8.04455,0V33.6605a38.6135,38.6135,0,0,1,20.54749,8.52392l-1.15732,1.15717a4.023,4.023,0,1,0,5.69194,5.6868l1.15732-1.15461a38.65143,38.65143,0,0,1,8.53149,20.54734h-1.65425A4.02834,4.02834,0,0,0,97.1141,72.446v.09193A4.02834,4.02834,0,0,0,101.13894,76.56275Z" id="id_102" style="fill: rgb(255, 255, 255);"></path></svg>